<svg id="my-svg" width="100%" xmlns="http://www.w3.org/2000/svg" xmlns:xlink="http://www.w3.org/1999/xlink" class="classDiagram" style="max-width: 307.359px; background-color: transparent;" viewBox="0 0 307.359375 234" role="graphics-document document" aria-roledescription="classDiagram"><style>#my-svg{font-family:"trebuchet ms",verdana,arial,sans-serif;font-size:16px;fill:#333;}@keyframes edge-animation-frame{from{stroke-dashoffset:0;}}@keyframes dash{to{stroke-dashoffset:0;}}#my-svg .edge-animation-slow{stroke-dasharray:9,5!important;stroke-dashoffset:900;animation:dash 50s linear infinite;stroke-linecap:round;}#my-svg .edge-animation-fast{stroke-dasharray:9,5!important;stroke-dashoffset:900;animation:dash 20s linear infinite;stroke-linecap:round;}#my-svg .error-icon{fill:#552222;}#my-svg .error-text{fill:#552222;stroke:#552222;}#my-svg .edge-thickness-normal{stroke-width:1px;}#my-svg .edge-thickness-thick{stroke-width:3.5px;}#my-svg .edge-pattern-solid{stroke-dasharray:0;}#my-svg .edge-thickness-invisible{stroke-width:0;fill:none;}#my-svg .edge-pattern-dashed{stroke-dasharray:3;}#my-svg .edge-pattern-dotted{stroke-dasharray:2;}#my-svg .marker{fill:#333333;stroke:#333333;}#my-svg .marker.cross{stroke:#333333;}#my-svg svg{font-family:"trebuchet ms",verdana,arial,sans-serif;font-size:16px;}#my-svg p{margin:0;}#my-svg g.classGroup text{fill:#9370DB;stroke:none;font-family:"trebuchet ms",verdana,arial,sans-serif;font-size:10px;}#my-svg g.classGroup text .title{font-weight:bolder;}#my-svg .cluster-label text{fill:#333;}#my-svg .cluster-label span{color:#333;}#my-svg .cluster-label span p{background-color:transparent;}#my-svg .cluster rect{fill:#ffffde;stroke:#aaaa33;stroke-width:1px;}#my-svg .cluster text{fill:#333;}#my-svg .cluster span{color:#333;}#my-svg .nodeLabel,#my-svg .edgeLabel{color:#131300;}#my-svg .noteLabel .nodeLabel,#my-svg .noteLabel .edgeLabel{color:black;}#my-svg .edgeLabel .label rect{fill:#ECECFF;}#my-svg .label text{fill:#131300;}#my-svg .labelBkg{background:#ECECFF;}#my-svg .edgeLabel .label span{background:#ECECFF;}#my-svg .classTitle{font-weight:bolder;}#my-svg .node rect,#my-svg .node circle,#my-svg .node ellipse,#my-svg .node polygon,#my-svg .node path{fill:#ECECFF;stroke:#9370DB;stroke-width:1;}#my-svg .divider{stroke:#9370DB;stroke-width:1;}#my-svg g.clickable{cursor:pointer;}#my-svg g.classGroup rect{fill:#ECECFF;stroke:#9370DB;}#my-svg g.classGroup line{stroke:#9370DB;stroke-width:1;}#my-svg .classLabel .box{stroke:none;stroke-width:0;fill:#ECECFF;opacity:0.5;}#my-svg .classLabel .label{fill:#9370DB;font-size:10px;}#my-svg .relation{stroke:#333333;stroke-width:1;fill:none;}#my-svg .dashed-line{stroke-dasharray:3;}#my-svg .dotted-line{stroke-dasharray:1 2;}#my-svg [id$="-compositionStart"],#my-svg .composition{fill:#333333!important;stroke:#333333!important;stroke-width:1;}#my-svg [id$="-compositionEnd"],#my-svg .composition{fill:#333333!important;stroke:#333333!important;stroke-width:1;}#my-svg [id$="-dependencyStart"],#my-svg .dependency{fill:#333333!important;stroke:#333333!important;stroke-width:1;}#my-svg [id$="-dependencyEnd"],#my-svg .dependency{fill:#333333!important;stroke:#333333!important;stroke-width:1;}#my-svg [id$="-extensionStart"],#my-svg .extension{fill:transparent!important;stroke:#333333!important;stroke-width:1;}#my-svg [id$="-extensionEnd"],#my-svg .extension{fill:transparent!important;stroke:#333333!important;stroke-width:1;}#my-svg [id$="-aggregationStart"],#my-svg .aggregation{fill:transparent!important;stroke:#333333!important;stroke-width:1;}#my-svg [id$="-aggregationEnd"],#my-svg .aggregation{fill:transparent!important;stroke:#333333!important;stroke-width:1;}#my-svg [id$="-lollipopStart"],#my-svg .lollipop{fill:#ECECFF!important;stroke:#333333!important;stroke-width:1;}#my-svg [id$="-lollipopEnd"],#my-svg .lollipop{fill:#ECECFF!important;stroke:#333333!important;stroke-width:1;}#my-svg .edgeTerminals{font-size:11px;line-height:initial;}#my-svg .classTitleText{text-anchor:middle;font-size:18px;fill:#333;}#my-svg .edgeLabel[data-look="neo"]{background-color:rgba(232,232,232, 0.8);text-align:center;}#my-svg .edgeLabel[data-look="neo"] p{background-color:rgba(232,232,232, 0.8);}#my-svg .edgeLabel[data-look="neo"] rect{opacity:0.5;background-color:rgba(232,232,232, 0.8);fill:rgba(232,232,232, 0.8);}#my-svg .label-icon{display:inline-block;height:1em;overflow:visible;vertical-align:-0.125em;}#my-svg .node .label-icon path{fill:currentColor;stroke:revert;stroke-width:revert;}#my-svg .node .neo-node{stroke:#9370DB;}#my-svg [data-look="neo"].node rect,#my-svg [data-look="neo"].cluster rect,#my-svg [data-look="neo"].node polygon{stroke:#9370DB;filter:drop-shadow(1px 2px 2px rgba(185, 185, 185, 1));}#my-svg [data-look="neo"].swimlane.cluster rect{filter:none;}#my-svg [data-look="neo"].node path{stroke:#9370DB;stroke-width:1px;}#my-svg [data-look="neo"].node .outer-path{filter:drop-shadow(1px 2px 2px rgba(185, 185, 185, 1));}#my-svg [data-look="neo"].node .neo-line path{stroke:#9370DB;filter:none;}#my-svg [data-look="neo"].node circle{stroke:#9370DB;filter:drop-shadow(1px 2px 2px rgba(185, 185, 185, 1));}#my-svg [data-look="neo"].node circle .state-start{fill:#000000;}#my-svg [data-look="neo"].icon-shape .icon{fill:#9370DB;filter:drop-shadow(1px 2px 2px rgba(185, 185, 185, 1));}#my-svg [data-look="neo"].icon-shape .icon-neo path{stroke:#9370DB;filter:drop-shadow(1px 2px 2px rgba(185, 185, 185, 1));}#my-svg :root{--mermaid-font-family:"trebuchet ms",verdana,arial,sans-serif;}</style><g><defs><marker id="my-svg_classDiagram-aggregationStart" class="marker aggregation classDiagram" refX="18" refY="7" markerWidth="190" markerHeight="240" orient="auto"><path d="M 18,7 L9,13 L1,7 L9,1 Z"/></marker></defs><defs><marker id="my-svg_classDiagram-aggregationEnd" class="marker aggregation classDiagram" refX="1" refY="7" markerWidth="20" markerHeight="28" orient="auto"><path d="M 18,7 L9,13 L1,7 L9,1 Z"/></marker></defs><defs><marker id="my-svg_classDiagram-aggregationStart-margin" class="marker aggregation classDiagram" refX="15" refY="7" markerWidth="190" markerHeight="240" orient="auto" markerUnits="userSpaceOnUse"><path d="M 18,7 L9,13 L1,7 L9,1 Z" style="stroke-width: 2;"/></marker></defs><defs><marker id="my-svg_classDiagram-aggregationEnd-margin" class="marker aggregation classDiagram" refX="1" refY="7" markerWidth="20" markerHeight="28" orient="auto" markerUnits="userSpaceOnUse"><path d="M 18,7 L9,13 L1,7 L9,1 Z" style="stroke-width: 2;"/></marker></defs><defs><marker id="my-svg_classDiagram-extensionStart" class="marker extension classDiagram" refX="18" refY="7" markerWidth="20" markerHeight="28" orient="auto" markerUnits="userSpaceOnUse"><path d="M 1,7 L18,13 V 1 Z"/></marker></defs><defs><marker id="my-svg_classDiagram-extensionEnd" class="marker extension classDiagram" refX="1" refY="7" markerWidth="20" markerHeight="28" orient="auto"><path d="M 1,1 V 13 L18,7 Z"/></marker></defs><marker id="my-svg_classDiagram-extensionStart-margin" class="marker extension classDiagram" refX="18" refY="7" markerWidth="20" markerHeight="28" orient="auto" markerUnits="userSpaceOnUse" viewBox="0 0 20 14"><polygon points="10,7 18,13 18,1" style="stroke-width: 2; stroke-dasharray: 0;"/></marker><defs><marker id="my-svg_classDiagram-extensionEnd-margin" class="marker extension classDiagram" refX="9" refY="7" markerWidth="20" markerHeight="28" orient="auto" markerUnits="userSpaceOnUse" viewBox="0 0 20 14"><polygon points="10,1 10,13 18,7" style="stroke-width: 2; stroke-dasharray: 0;"/></marker></defs><defs><marker id="my-svg_classDiagram-compositionStart" class="marker composition classDiagram" refX="18" refY="7" markerWidth="190" markerHeight="240" orient="auto"><path d="M 18,7 L9,13 L1,7 L9,1 Z"/></marker></defs><defs><marker id="my-svg_classDiagram-compositionEnd" class="marker composition classDiagram" refX="1" refY="7" markerWidth="20" markerHeight="28" orient="auto"><path d="M 18,7 L9,13 L1,7 L9,1 Z"/></marker></defs><defs><marker id="my-svg_classDiagram-compositionStart-margin" class="marker composition classDiagram" refX="15" refY="7" markerWidth="190" markerHeight="240" orient="auto" markerUnits="userSpaceOnUse"><path viewBox="0 0 15 15" d="M 18,7 L9,13 L1,7 L9,1 Z" style="stroke-width: 0;"/></marker></defs><defs><marker id="my-svg_classDiagram-compositionEnd-margin" class="marker composition classDiagram" refX="3.5" refY="7" markerWidth="20" markerHeight="28" orient="auto" markerUnits="userSpaceOnUse"><path d="M 18,7 L9,13 L1,7 L9,1 Z" style="stroke-width: 0;"/></marker></defs><defs><marker id="my-svg_classDiagram-dependencyStart" class="marker dependency classDiagram" refX="6" refY="7" markerWidth="190" markerHeight="240" orient="auto"><path d="M 5,7 L9,13 L1,7 L9,1 Z"/></marker></defs><defs><marker id="my-svg_classDiagram-dependencyEnd" class="marker dependency classDiagram" refX="13" refY="7" markerWidth="20" markerHeight="28" orient="auto"><path d="M 18,7 L9,13 L14,7 L9,1 Z"/></marker></defs><defs><marker id="my-svg_classDiagram-dependencyStart-margin" class="marker dependency classDiagram" refX="4" refY="7" markerWidth="190" markerHeight="240" orient="auto" markerUnits="userSpaceOnUse"><path d="M 5,7 L9,13 L1,7 L9,1 Z" style="stroke-width: 0;"/></marker></defs><defs><marker id="my-svg_classDiagram-dependencyEnd-margin" class="marker dependency classDiagram" refX="16" refY="7" markerWidth="20" markerHeight="28" orient="auto" markerUnits="userSpaceOnUse"><path d="M 18,7 L9,13 L14,7 L9,1 Z" style="stroke-width: 0;"/></marker></defs><defs><marker id="my-svg_classDiagram-lollipopStart" class="marker lollipop classDiagram" refX="13" refY="7" markerWidth="190" markerHeight="240" orient="auto"><circle fill="transparent" cx="7" cy="7" r="6"/></marker></defs><defs><marker id="my-svg_classDiagram-lollipopEnd" class="marker lollipop classDiagram" refX="1" refY="7" markerWidth="190" markerHeight="240" orient="auto"><circle fill="transparent" cx="7" cy="7" r="6"/></marker></defs><defs><marker id="my-svg_classDiagram-lollipopStart-margin" class="marker lollipop classDiagram" refX="13" refY="7" markerWidth="190" markerHeight="240" orient="auto" markerUnits="userSpaceOnUse"><circle fill="transparent" cx="7" cy="7" r="6" stroke-width="2"/></marker></defs><defs><marker id="my-svg_classDiagram-lollipopEnd-margin" class="marker lollipop classDiagram" refX="1" refY="7" markerWidth="190" markerHeight="240" orient="auto" markerUnits="userSpaceOnUse"><circle fill="transparent" cx="7" cy="7" r="6" stroke-width="2"/></marker></defs><g class="root"><g class="clusters"/><g class="edgePaths"><path d="M121.052,67.265L105.174,75.554C89.295,83.844,57.538,100.422,41.66,112.878C25.781,125.333,25.781,133.667,25.781,137.833L25.781,142" id="my-svg-id_A_B_1" class="edge-thickness-normal edge-pattern-solid relation" style=";;;" data-edge="true" data-et="edge" data-id="id_A_B_1" data-points="W3sieCI6MTM2LjM0Mzc1LCJ5Ijo1OS4yODI0NDQ2MDY3Njg5MzR9LHsieCI6MjUuNzgxMjUsInkiOjExN30seyJ4IjoyNS43ODEyNSwieSI6MTQyfV0=" data-look="classic" marker-start="url(#my-svg_classDiagram-extensionStart)"/><path d="M127.06,92.386L124.441,96.489C121.821,100.591,116.583,108.795,113.963,117.064C111.344,125.333,111.344,133.667,111.344,137.833L111.344,142" id="my-svg-id_A_C_2" class="edge-thickness-normal edge-pattern-solid relation" style=";;;" data-edge="true" data-et="edge" data-id="id_A_C_2" data-points="W3sieCI6MTM2LjM0Mzc1LCJ5Ijo3Ny44NDczMzM4MjAzMDY4fSx7IngiOjExMS4zNDM3NSwieSI6MTE3fSx7IngiOjExMS4zNDM3NSwieSI6MTQyfV0=" data-look="classic" marker-start="url(#my-svg_classDiagram-compositionStart)"/><path d="M181.19,92.386L183.809,96.489C186.429,100.591,191.667,108.795,194.287,117.064C196.906,125.333,196.906,133.667,196.906,137.833L196.906,142" id="my-svg-id_A_D_3" class="edge-thickness-normal edge-pattern-solid relation" style=";;;" data-edge="true" data-et="edge" data-id="id_A_D_3" data-points="W3sieCI6MTcxLjkwNjI1LCJ5Ijo3Ny44NDczMzM4MjAzMDY4fSx7IngiOjE5Ni45MDYyNSwieSI6MTE3fSx7IngiOjE5Ni45MDYyNSwieSI6MTQyfV0=" data-look="classic" marker-start="url(#my-svg_classDiagram-aggregationStart)"/><path d="M171.906,59.315L190.259,68.929C208.612,78.543,245.318,97.772,263.671,110.552C282.023,123.333,282.023,129.667,282.023,132.833L282.023,136" id="my-svg-id_A_E_4" class="edge-thickness-normal edge-pattern-solid relation" style=";;;" data-edge="true" data-et="edge" data-id="id_A_E_4" data-points="W3sieCI6MTcxLjkwNjI1LCJ5Ijo1OS4zMTQ3NjM5MTE3OTUyNX0seyJ4IjoyODIuMDIzNDM3NSwieSI6MTE3fSx7IngiOjI4Mi4wMjM0Mzc1LCJ5IjoxNDJ9XQ==" data-look="classic" marker-end="url(#my-svg_classDiagram-dependencyEnd)"/></g><g class="edgeLabels"><g class="edgeLabel"><g class="label" data-id="id_A_B_1" transform="translate(0, 0)"><foreignObject width="0" height="0"><div xmlns="http://www.w3.org/1999/xhtml" class="labelBkg" style="display: table-cell; white-space: nowrap; line-height: 1.5; max-width: 200px; text-align: center;"><span class="edgeLabel"></span></div></foreignObject></g></g><g class="edgeLabel"><g class="label" data-id="id_A_C_2" transform="translate(0, 0)"><foreignObject width="0" height="0"><div xmlns="http://www.w3.org/1999/xhtml" class="labelBkg" style="display: table-cell; white-space: nowrap; line-height: 1.5; max-width: 200px; text-align: center;"><span class="edgeLabel"></span></div></foreignObject></g></g><g class="edgeLabel"><g class="label" data-id="id_A_D_3" transform="translate(0, 0)"><foreignObject width="0" height="0"><div xmlns="http://www.w3.org/1999/xhtml" class="labelBkg" style="display: table-cell; white-space: nowrap; line-height: 1.5; max-width: 200px; text-align: center;"><span class="edgeLabel"></span></div></foreignObject></g></g><g class="edgeLabel"><g class="label" data-id="id_A_E_4" transform="translate(0, 0)"><foreignObject width="0" height="0"><div xmlns="http://www.w3.org/1999/xhtml" class="labelBkg" style="display: table-cell; white-space: nowrap; line-height: 1.5; max-width: 200px; text-align: center;"><span class="edgeLabel"></span></div></foreignObject></g></g></g><g class="nodes"><g class="node default" id="my-svg-classId-A-0" data-look="classic" transform="translate(154.125, 50)"><g class="basic label-container outer-path"><path d="M-17.78125 -42 L17.78125 -42 L17.78125 42 L-17.78125 42" stroke="none" stroke-width="0" fill="#ECECFF" style=""/><path d="M-17.78125 -42 C-8.797564629667772 -42, 0.18612074066445672 -42, 17.78125 -42 M-17.78125 -42 C-8.207091592517715 -42, 1.36706681496457 -42, 17.78125 -42 M17.78125 -42 C17.78125 -23.699486655738454, 17.78125 -5.398973311476908, 17.78125 42 M17.78125 -42 C17.78125 -20.671803192357565, 17.78125 0.6563936152848697, 17.78125 42 M17.78125 42 C10.103124343409212 42, 2.424998686818423 42, -17.78125 42 M17.78125 42 C7.748162913235239 42, -2.2849241735295216 42, -17.78125 42 M-17.78125 42 C-17.78125 22.717186176349212, -17.78125 3.434372352698425, -17.78125 -42 M-17.78125 42 C-17.78125 11.303353443959622, -17.78125 -19.393293112080755, -17.78125 -42" stroke="#9370DB" stroke-width="1.3" fill="none" stroke-dasharray="0 0" style=""/></g><g class="annotation-group text" transform="translate(0, -18)"/><g class="label-group text" transform="translate(-5.78125, -18)"><g class="label" style="font-weight: bolder" transform="translate(0,-12)"><foreignObject width="11.5625" height="24"><div xmlns="http://www.w3.org/1999/xhtml" style="display: table-cell; white-space: nowrap; line-height: 1.5; max-width: 62px; text-align: center;"><span class="nodeLabel markdown-node-label" style=""><p>A</p></span></div></foreignObject></g></g><g class="members-group text" transform="translate(-5.78125, 30)"/><g class="methods-group text" transform="translate(-5.78125, 60)"/><g class="divider" style=""><path d="M-17.78125 6 C-10.037738323629306 6.000217743737824, -2.2942266472586113 6.000435487475649, 17.78125 6.001 M-17.78125 6 C-4.082805000916714 6.0003851935324874, 9.615639998166571 6.000770387064975, 17.78125 6.001" stroke="#9370DB" stroke-width="1.3" fill="none" stroke-dasharray="0 0" style=""/></g><g class="divider" style=""><path d="M-17.78125 24 C-9.212873031514125 24.00024093854393, -0.6444960630282495 24.00048187708786, 17.78125 24.001 M-17.78125 24 C-7.338606048480431 24.000293642009183, 3.1040379030391385 24.000587284018366, 17.78125 24.001" stroke="#9370DB" stroke-width="1.3" fill="none" stroke-dasharray="0 0" style=""/></g></g><g class="node default" id="my-svg-classId-B-1" data-look="classic" transform="translate(25.78125, 184)"><g class="basic label-container outer-path"><path d="M-17.78125 -42 L17.78125 -42 L17.78125 42 L-17.78125 42" stroke="none" stroke-width="0" fill="#ECECFF" style=""/><path d="M-17.78125 -42 C-3.9274432336856293 -42, 9.926363532628741 -42, 17.78125 -42 M-17.78125 -42 C-7.125162425252576 -42, 3.5309251494948484 -42, 17.78125 -42 M17.78125 -42 C17.78125 -20.829582083244173, 17.78125 0.3408358335116546, 17.78125 42 M17.78125 -42 C17.78125 -10.120786801559134, 17.78125 21.75842639688173, 17.78125 42 M17.78125 42 C5.777380806996417 42, -6.226488386007166 42, -17.78125 42 M17.78125 42 C4.865199746687109 42, -8.050850506625782 42, -17.78125 42 M-17.78125 42 C-17.78125 11.418152303379639, -17.78125 -19.163695393240722, -17.78125 -42 M-17.78125 42 C-17.78125 23.250599486125395, -17.78125 4.501198972250791, -17.78125 -42" stroke="#9370DB" stroke-width="1.3" fill="none" stroke-dasharray="0 0" style=""/></g><g class="annotation-group text" transform="translate(0, -18)"/><g class="label-group text" transform="translate(-5.78125, -18)"><g class="label" style="font-weight: bolder" transform="translate(0,-12)"><foreignObject width="11.5625" height="24"><div xmlns="http://www.w3.org/1999/xhtml" style="display: table-cell; white-space: nowrap; line-height: 1.5; max-width: 61px; text-align: center;"><span class="nodeLabel markdown-node-label" style=""><p>B</p></span></div></foreignObject></g></g><g class="members-group text" transform="translate(-5.78125, 30)"/><g class="methods-group text" transform="translate(-5.78125, 60)"/><g class="divider" style=""><path d="M-17.78125 6 C-9.320367384003905 6.000237915855634, -0.8594847680078104 6.0004758317112685, 17.78125 6.001 M-17.78125 6 C-5.683259830643754 6.000340189530245, 6.414730338712491 6.0006803790604915, 17.78125 6.001" stroke="#9370DB" stroke-width="1.3" fill="none" stroke-dasharray="0 0" style=""/></g><g class="divider" style=""><path d="M-17.78125 24 C-4.3731433350441105 24.000377029361406, 9.034963329911779 24.000754058722812, 17.78125 24.001 M-17.78125 24 C-5.895754377659578 24.000334214288152, 5.989741244680843 24.0006684285763, 17.78125 24.001" stroke="#9370DB" stroke-width="1.3" fill="none" stroke-dasharray="0 0" style=""/></g></g><g class="node default" id="my-svg-classId-C-2" data-look="classic" transform="translate(111.34375, 184)"><g class="basic label-container outer-path"><path d="M-17.78125 -42 L17.78125 -42 L17.78125 42 L-17.78125 42" stroke="none" stroke-width="0" fill="#ECECFF" style=""/><path d="M-17.78125 -42 C-9.516249623788495 -42, -1.2512492475769896 -42, 17.78125 -42 M-17.78125 -42 C-7.145574180504921 -42, 3.490101638990158 -42, 17.78125 -42 M17.78125 -42 C17.78125 -11.963927930288214, 17.78125 18.07214413942357, 17.78125 42 M17.78125 -42 C17.78125 -11.239882160859807, 17.78125 19.520235678280386, 17.78125 42 M17.78125 42 C6.340208091792498 42, -5.100833816415005 42, -17.78125 42 M17.78125 42 C9.749681827759254 42, 1.7181136555185077 42, -17.78125 42 M-17.78125 42 C-17.78125 17.908585445247333, -17.78125 -6.1828291095053345, -17.78125 -42 M-17.78125 42 C-17.78125 23.66991238160569, -17.78125 5.339824763211382, -17.78125 -42" stroke="#9370DB" stroke-width="1.3" fill="none" stroke-dasharray="0 0" style=""/></g><g class="annotation-group text" transform="translate(0, -18)"/><g class="label-group text" transform="translate(-5.78125, -18)"><g class="label" style="font-weight: bolder" transform="translate(0,-12)"><foreignObject width="11.5625" height="24"><div xmlns="http://www.w3.org/1999/xhtml" style="display: table-cell; white-space: nowrap; line-height: 1.5; max-width: 61px; text-align: center;"><span class="nodeLabel markdown-node-label" style=""><p>C</p></span></div></foreignObject></g></g><g class="members-group text" transform="translate(-5.78125, 30)"/><g class="methods-group text" transform="translate(-5.78125, 60)"/><g class="divider" style=""><path d="M-17.78125 6 C-9.145028419105442 6.000242846301044, -0.5088068382108837 6.000485692602089, 17.78125 6.001 M-17.78125 6 C-4.550591807429241 6.000372039597682, 8.680066385141519 6.000744079195364, 17.78125 6.001" stroke="#9370DB" stroke-width="1.3" fill="none" stroke-dasharray="0 0" style=""/></g><g class="divider" style=""><path d="M-17.78125 24 C-5.131615922517854 24.000355701485482, 7.518018154964292 24.000711402970968, 17.78125 24.001 M-17.78125 24 C-8.86572864467226 24.00025070007326, 0.04979271065548119 24.000501400146522, 17.78125 24.001" stroke="#9370DB" stroke-width="1.3" fill="none" stroke-dasharray="0 0" style=""/></g></g><g class="node default" id="my-svg-classId-D-3" data-look="classic" transform="translate(196.90625, 184)"><g class="basic label-container outer-path"><path d="M-17.78125 -42 L17.78125 -42 L17.78125 42 L-17.78125 42" stroke="none" stroke-width="0" fill="#ECECFF" style=""/><path d="M-17.78125 -42 C-5.069296849468168 -42, 7.6426563010636634 -42, 17.78125 -42 M-17.78125 -42 C-4.662775630442626 -42, 8.455698739114748 -42, 17.78125 -42 M17.78125 -42 C17.78125 -24.675792157533316, 17.78125 -7.351584315066631, 17.78125 42 M17.78125 -42 C17.78125 -21.854214994011077, 17.78125 -1.7084299880221536, 17.78125 42 M17.78125 42 C7.4479075346890244 42, -2.885434930621951 42, -17.78125 42 M17.78125 42 C7.9411027333046 42, -1.8990445333908 42, -17.78125 42 M-17.78125 42 C-17.78125 19.66856504701702, -17.78125 -2.6628699059659624, -17.78125 -42 M-17.78125 42 C-17.78125 15.086020596132279, -17.78125 -11.827958807735442, -17.78125 -42" stroke="#9370DB" stroke-width="1.3" fill="none" stroke-dasharray="0 0" style=""/></g><g class="annotation-group text" transform="translate(0, -18)"/><g class="label-group text" transform="translate(-5.78125, -18)"><g class="label" style="font-weight: bolder" transform="translate(0,-12)"><foreignObject width="11.5625" height="24"><div xmlns="http://www.w3.org/1999/xhtml" style="display: table-cell; white-space: nowrap; line-height: 1.5; max-width: 62px; text-align: center;"><span class="nodeLabel markdown-node-label" style=""><p>D</p></span></div></foreignObject></g></g><g class="members-group text" transform="translate(-5.78125, 30)"/><g class="methods-group text" transform="translate(-5.78125, 60)"/><g class="divider" style=""><path d="M-17.78125 6 C-6.787432653034248 6.000309140733834, 4.206384693931504 6.000618281467668, 17.78125 6.001 M-17.78125 6 C-4.614474612623718 6.000370243244636, 8.552300774752563 6.000740486489272, 17.78125 6.001" stroke="#9370DB" stroke-width="1.3" fill="none" stroke-dasharray="0 0" style=""/></g><g class="divider" style=""><path d="M-17.78125 24 C-5.549519306253837 24.00034395024798, 6.682211387492327 24.000687900495958, 17.78125 24.001 M-17.78125 24 C-4.1188263170800195 24.000384180630803, 9.543597365839961 24.000768361261606, 17.78125 24.001" stroke="#9370DB" stroke-width="1.3" fill="none" stroke-dasharray="0 0" style=""/></g></g><g class="node default" id="my-svg-classId-E-4" data-look="classic" transform="translate(282.0234375, 184)"><g class="basic label-container outer-path"><path d="M-17.3359375 -42 L17.3359375 -42 L17.3359375 42 L-17.3359375 42" stroke="none" stroke-width="0" fill="#ECECFF" style=""/><path d="M-17.3359375 -42 C-4.436704427695588 -42, 8.462528644608824 -42, 17.3359375 -42 M-17.3359375 -42 C-4.469911372158936 -42, 8.396114755682127 -42, 17.3359375 -42 M17.3359375 -42 C17.3359375 -23.588290156500243, 17.3359375 -5.1765803130004855, 17.3359375 42 M17.3359375 -42 C17.3359375 -19.149614776529877, 17.3359375 3.700770446940247, 17.3359375 42 M17.3359375 42 C4.957739225613098 42, -7.420459048773804 42, -17.3359375 42 M17.3359375 42 C7.127136426373298 42, -3.0816646472534046 42, -17.3359375 42 M-17.3359375 42 C-17.3359375 25.097732659283242, -17.3359375 8.195465318566484, -17.3359375 -42 M-17.3359375 42 C-17.3359375 15.57736681213283, -17.3359375 -10.84526637573434, -17.3359375 -42" stroke="#9370DB" stroke-width="1.3" fill="none" stroke-dasharray="0 0" style=""/></g><g class="annotation-group text" transform="translate(0, -18)"/><g class="label-group text" transform="translate(-5.3359375, -18)"><g class="label" style="font-weight: bolder" transform="translate(0,-12)"><foreignObject width="10.671875" height="24"><div xmlns="http://www.w3.org/1999/xhtml" style="display: table-cell; white-space: nowrap; line-height: 1.5; max-width: 60px; text-align: center;"><span class="nodeLabel markdown-node-label" style=""><p>E</p></span></div></foreignObject></g></g><g class="members-group text" transform="translate(-5.3359375, 30)"/><g class="methods-group text" transform="translate(-5.3359375, 60)"/><g class="divider" style=""><path d="M-17.3359375 6 C-4.772217719935487 6.000362360552467, 7.791502060129027 6.000724721104934, 17.3359375 6.001 M-17.3359375 6 C-4.120661243180201 6.000381152627506, 9.094615013639597 6.000762305255013, 17.3359375 6.001" stroke="#9370DB" stroke-width="1.3" fill="none" stroke-dasharray="0 0" style=""/></g><g class="divider" style=""><path d="M-17.3359375 24 C-8.27022057562801 24.000261471781506, 0.7954963487439812 24.00052294356301, 17.3359375 24.001 M-17.3359375 24 C-8.56917244185102 24.0002528494654, 0.19759261629796043 24.000505698930798, 17.3359375 24.001" stroke="#9370DB" stroke-width="1.3" fill="none" stroke-dasharray="0 0" style=""/></g></g></g></g></g><defs><filter id="my-svg-drop-shadow" height="130%" width="130%"><feDropShadow dx="4" dy="4" stdDeviation="0" flood-opacity="0.06" flood-color="#000000"/></filter></defs><defs><filter id="my-svg-drop-shadow-small" height="150%" width="150%"><feDropShadow dx="2" dy="2" stdDeviation="0" flood-opacity="0.06" flood-color="#000000"/></filter></defs></svg>