<svg xmlns="http://www.w3.org/2000/svg" width="800.00" height="600.00" viewBox="0 0 800.00 600.00">
<rect x="0" y="0" width="800.00" height="600.00" fill="#ffffff"/>
<defs><marker id="arrow" viewBox="0 0 10 10" refX="9" refY="5" markerWidth="7" markerHeight="7" orient="auto-start-reverse"><path d="M0,0 L10,5 L0,10 z" fill="context-stroke"/></marker></defs><g transform="matrix(1.000000 0.000000 0.000000 1.000000 369.583333 156.000000)"><g class="node"><rect x="-15.00" y="-18.00" width="80.00" height="36.00" rx="6.00"  fill="#eef2ff" stroke="#6366f1" stroke-width="2.00" stroke-miterlimit="10.00" stroke-linecap="butt" stroke-linejoin="miter"/>
</g><g class="node"><rect x="-40.00" y="78.00" width="80.00" height="36.00" rx="6.00"  fill="#eef2ff" stroke="#6366f1" stroke-width="2.00" stroke-miterlimit="10.00" stroke-linecap="butt" stroke-linejoin="miter"/>
</g><g class="node"><rect x="-40.00" y="174.00" width="80.00" height="36.00" rx="6.00"  fill="#eef2ff" stroke="#6366f1" stroke-width="2.00" stroke-miterlimit="10.00" stroke-linecap="butt" stroke-linejoin="miter"/>
</g><g class="node"><rect x="-15.00" y="270.00" width="80.00" height="36.00" rx="6.00"  fill="#eef2ff" stroke="#6366f1" stroke-width="2.00" stroke-miterlimit="10.00" stroke-linecap="butt" stroke-linejoin="miter"/>
</g><g class="edge"><path d="M25,18 C25,23 29.166666666666668,43 25,48 C20.833333333333332,53 4.166666666666667,43 0,48 C-4.166666666666667,53 0,73 0,78"  fill="none" stroke="#94a3b8" stroke-width="2.00" stroke-miterlimit="10.00" stroke-linecap="butt" stroke-linejoin="miter" marker-end="url(#arrow)"/>
</g><g class="edge"><path d="M0,114 L0,174"  fill="none" stroke="#94a3b8" stroke-width="2.00" stroke-miterlimit="10.00" stroke-linecap="butt" stroke-linejoin="miter" marker-end="url(#arrow)"/>
</g><g class="edge"><path d="M0,210 C0,215 -4.166666666666667,235 0,240 C4.166666666666667,245 20.833333333333332,235 25,240 C29.166666666666668,245 25,265 25,270"  fill="none" stroke="#94a3b8" stroke-width="2.00" stroke-miterlimit="10.00" stroke-linecap="butt" stroke-linejoin="miter" marker-end="url(#arrow)"/>
</g><g class="edge"><path d="M25,18 C25,24.5 14.166666666666666,50.5 25,57 C35.833333333333336,63.5 79.16666666666667,50.5 90,57 C100.83333333333333,63.5 90,73.5 90,96 C90,118.5 90,169.5 90,192 C90,214.5 100.83333333333333,224.5 90,231 C79.16666666666667,237.5 35.833333333333336,224.5 25,231 C14.166666666666666,237.5 25,263.5 25,270"  fill="none" stroke="#94a3b8" stroke-width="2.00" stroke-miterlimit="10.00" stroke-linecap="butt" stroke-linejoin="miter" marker-end="url(#arrow)"/>
</g><g class="label"><text x="20.81" y="2.40" text-anchor="start" dominant-baseline="alphabetic" font-family="'Segoe UI', system-ui, -apple-system, sans-serif" font-size="13.00" font-style="normal" font-weight="400" fill="#1e293b">A</text>
</g><g class="label"><text x="-3.73" y="98.40" text-anchor="start" dominant-baseline="alphabetic" font-family="'Segoe UI', system-ui, -apple-system, sans-serif" font-size="13.00" font-style="normal" font-weight="400" fill="#1e293b">B</text>
</g><g class="label"><text x="-4.02" y="194.40" text-anchor="start" dominant-baseline="alphabetic" font-family="'Segoe UI', system-ui, -apple-system, sans-serif" font-size="13.00" font-style="normal" font-weight="400" fill="#1e293b">C</text>
</g><g class="label"><text x="20.44" y="290.40" text-anchor="start" dominant-baseline="alphabetic" font-family="'Segoe UI', system-ui, -apple-system, sans-serif" font-size="13.00" font-style="normal" font-weight="400" fill="#1e293b">D</text>
</g></g></svg>
